# xmcd
# Track frame offsets:
# 150
# 11274
# 19906
# 26688
# 37686
# 49413
# 59626
# 70095
# 80384
# 92467
# 101163
# 111469
#
# Disc length: 1599 seconds
# Revision: 0
# Processed by: cddbd v1.4PL0 Copyright (c) Steve Scherf et al.
# Submitted via: VisiTrax 2.9.5.180 - For more info visit www.synapsa.com
#
DISCID=95063d0c
DTITLE=Waylon Jennings - Backtraks
DYEAR=1999
DGENRE=Country
TTITLE0=Sally was a Good Old Girl
TTITLE1=Jole`Blon
TTITLE2=It`s So Easy
TTITLE3=Big Mamaou
TTITLE4=Cring
TTITLE5=Money(That`s What I Want)
TTITLE6=Burning Memories
TTITLE7=Lorena
TTITLE8=Don`t Think Twice
TTITLE9=Love Is Gonna Live Here Again
TTITLE10=White Lightning
TTITLE11=Abilene
EXTD=
EXTT0=
EXTT1=
EXTT2=
EXTT3=
EXTT4=
EXTT5=
EXTT6=
EXTT7=
EXTT8=
EXTT9=
EXTT10=
EXTT11=
PLAYORDER=
